<svg width="291" height="291" viewBox="0 0 291 291" fill="none" xmlns="http://www.w3.org/2000/svg">
<path d="M145.5 0C225.98 0 291 65.0203 291 145.5C291 225.98 225.98 291 145.5 291C65.0203 291 0 225.98 0 145.5C0 65.0203 65.0203 0 145.5 0Z" fill="#5BB6E8"/>
<path d="M205.973 133.224C225.07 133.224 240.984 148.683 240.984 167.78C240.984 186.877 225.07 202.336 205.973 202.336H85.0266C65.9297 202.336 50.0156 186.877 50.0156 167.78C50.0156 150.956 62.2922 136.861 78.6609 133.678C78.6609 132.769 78.6609 132.314 78.6609 131.405C78.6609 116.855 90.9375 104.578 105.488 104.578C108.67 104.578 111.853 105.033 114.581 105.942C121.856 90.0282 137.77 79.1157 156.413 79.1157C181.875 79.1157 202.336 99.5767 202.336 124.584C202.336 127.313 201.881 130.041 201.427 132.314H205.973V133.224Z" fill="white"/>
<path d="M135.069 177.689C136.404 178.862 137.783 180.071 139.201 181.325C139.21 181.334 139.22 181.343 139.23 181.351L143.947 185.425C144.579 185.972 145.363 186.244 146.148 186.244C146.932 186.244 147.717 185.971 148.349 185.425L153.065 181.351C153.075 181.343 153.084 181.334 153.094 181.326C162.431 173.068 169.432 166.746 174.497 160.58C180.413 153.379 183.169 146.867 183.169 140.089C183.169 127.825 173.562 118.219 161.299 118.219C155.787 118.219 150.341 120.294 146.148 123.892C141.954 120.294 136.507 118.219 130.995 118.219C118.732 118.219 109.125 127.825 109.125 140.089C109.125 154.913 119.446 163.974 135.069 177.689ZM132.681 145.499H141.658V136.522H150.635V145.499H159.612V154.476H150.635V163.453H141.658V154.476H132.681V145.499Z" fill="#FF1616"/>
</svg>
