<svg width="194" height="65" viewBox="0 0 194 65" fill="none" xmlns="http://www.w3.org/2000/svg">
<path d="M27.0174 45.4688H21.2281V36.7776H14.5348V45.4688H8.74556V24.1492H14.5348V32.0529H21.2281V24.1492H27.0174V45.4688ZM63.1089 40.3941C63.1089 42.1634 62.5062 43.5001 61.3007 44.4042C60.0952 45.3083 58.3648 45.7604 56.1094 45.7604C54.8844 45.7604 53.8199 45.6923 52.9158 45.5562C52.0117 45.4299 51.0881 45.1917 50.1451 44.8417V40.2774C51.0298 40.6663 51.9971 40.9871 53.047 41.2398C54.1067 41.4926 55.0497 41.619 55.876 41.619C57.1107 41.619 57.728 41.3371 57.728 40.7732C57.728 40.4816 57.553 40.2239 57.203 40.0003C56.8628 39.767 55.8615 39.3198 54.1991 38.6587C52.6825 38.0366 51.6228 37.3317 51.0201 36.5443C50.4173 35.7471 50.116 34.7409 50.116 33.5257C50.116 31.9897 50.709 30.7939 51.895 29.9384C53.0811 29.0829 54.7581 28.6552 56.926 28.6552C58.0148 28.6552 59.0356 28.7767 59.9883 29.0197C60.9507 29.2531 61.9472 29.5982 62.9777 30.0551L61.432 33.7299C60.6737 33.3896 59.8716 33.1028 59.0259 32.8695C58.1801 32.6265 57.4898 32.5049 56.9551 32.5049C56.0219 32.5049 55.5552 32.7334 55.5552 33.1903C55.5552 33.4723 55.7156 33.7153 56.0364 33.9194C56.367 34.1139 57.31 34.5173 58.8654 35.1298C60.0223 35.6062 60.8827 36.0728 61.4465 36.5297C62.0201 36.9866 62.4381 37.5262 62.7006 38.1484C62.9728 38.7608 63.1089 39.5094 63.1089 40.3941ZM76.1894 45.7604C75.3533 45.7604 74.6048 45.6243 73.9437 45.3521C73.2826 45.0702 72.6264 44.5695 71.9751 43.8501H71.7126C71.8876 45.007 71.9751 45.7264 71.9751 46.0083V52.6433H66.2733V28.9468H70.9106L71.7126 31.0467H71.9751C73.0347 29.4524 74.4978 28.6552 76.3644 28.6552C78.1921 28.6552 79.626 29.4135 80.6662 30.93C81.7064 32.4466 82.2265 34.527 82.2265 37.1713C82.2265 39.8351 81.6821 41.9349 80.5933 43.471C79.5142 44.9973 78.0462 45.7604 76.1894 45.7604ZM74.2791 33.132C73.443 33.132 72.8549 33.4334 72.5146 34.0361C72.1841 34.6291 72.0042 35.5138 71.9751 36.6901V37.1422C71.9751 38.5615 72.1646 39.5872 72.5438 40.2191C72.9229 40.851 73.5208 41.1669 74.3374 41.1669C75.0666 41.1669 75.5964 40.8558 75.9269 40.2336C76.2575 39.6017 76.4227 38.5615 76.4227 37.113C76.4227 35.6936 76.2575 34.6777 75.9269 34.0653C75.5964 33.4431 75.0471 33.132 74.2791 33.132ZM91.2239 45.4688H85.5222V28.9468H91.2239V45.4688ZM85.3763 24.8346C85.3763 23.9791 85.6145 23.3423 86.0909 22.9243C86.5672 22.5062 87.3353 22.2972 88.3949 22.2972C89.4546 22.2972 90.2274 22.5111 90.7135 22.9389C91.1996 23.3666 91.4426 23.9985 91.4426 24.8346C91.4426 26.5067 90.4267 27.3428 88.3949 27.3428C86.3825 27.3428 85.3763 26.5067 85.3763 24.8346Z" fill="#38B6FF"/>
<path d="M108.419 28.5677C107.048 28.5677 105.979 29.1315 105.211 30.2593C104.443 31.3772 104.059 32.923 104.059 34.8965C104.059 38.999 105.619 41.0503 108.74 41.0503C109.683 41.0503 110.597 40.919 111.481 40.6565C112.366 40.3941 113.255 40.0781 114.15 39.7087V44.5792C112.371 45.3667 110.358 45.7604 108.113 45.7604C104.895 45.7604 102.426 44.8271 100.705 42.9606C98.9938 41.094 98.1383 38.3963 98.1383 34.8673C98.1383 32.6605 98.5514 30.721 99.3778 29.0489C100.214 27.3768 101.41 26.0935 102.965 25.1991C104.53 24.295 106.368 23.843 108.477 23.843C110.781 23.843 112.983 24.3436 115.083 25.345L113.319 29.8801C112.531 29.5107 111.744 29.1996 110.956 28.9468C110.169 28.6941 109.323 28.5677 108.419 28.5677ZM123.687 45.4688H117.985V22.7785H123.687V45.4688ZM158.451 45.4688L157.737 43.4126H157.401C156.925 44.1709 156.259 44.7542 155.404 45.1625C154.558 45.5611 153.561 45.7604 152.414 45.7604C150.596 45.7604 149.182 45.2354 148.171 44.1855C147.16 43.1258 146.654 41.6336 146.654 39.7087V28.9468H152.356V37.9734C152.356 39.0525 152.507 39.8691 152.808 40.4232C153.119 40.9774 153.625 41.2544 154.324 41.2544C155.306 41.2544 156.006 40.8704 156.424 40.1024C156.842 39.3247 157.051 38.0171 157.051 36.1797V28.9468H162.753V45.4688H158.451ZM171.823 45.7604C170.647 45.7604 169.617 45.425 168.732 44.7542C167.857 44.0834 167.176 43.0967 166.69 41.794C166.214 40.4913 165.976 38.9698 165.976 37.2297C165.976 34.5465 166.515 32.4466 167.595 30.93C168.674 29.4135 170.156 28.6552 172.042 28.6552C172.966 28.6552 173.773 28.8399 174.463 29.2093C175.163 29.5787 175.8 30.2009 176.373 31.0759H176.49C176.305 29.7829 176.213 28.4899 176.213 27.1969V22.7785H181.958V45.4688H177.656L176.431 43.3835H176.213C175.231 44.9681 173.768 45.7604 171.823 45.7604ZM174.157 41.2544C175.07 41.2544 175.712 40.9676 176.081 40.3941C176.461 39.8205 176.665 38.9358 176.694 37.74V37.288C176.694 35.8297 176.485 34.7944 176.067 34.1819C175.649 33.5597 174.993 33.2487 174.098 33.2487C173.35 33.2487 172.766 33.6035 172.348 34.3132C171.94 35.0131 171.736 36.0145 171.736 37.3172C171.736 38.6004 171.945 39.5774 172.363 40.2482C172.781 40.919 173.379 41.2544 174.157 41.2544Z" fill="#737373"/>
<path d="M36.2256 43.2737C36.5529 43.5611 36.8909 43.8576 37.2385 44.1651C37.2409 44.1672 37.2433 44.1693 37.2457 44.1714L38.4022 45.1703C38.5571 45.3042 38.7494 45.3711 38.9417 45.3711C39.134 45.3711 39.3263 45.3042 39.4813 45.1703L40.6375 44.1714C40.6399 44.1693 40.6423 44.1673 40.6447 44.1652C42.9339 42.1406 44.6503 40.5906 45.8921 39.079C47.3425 37.3135 48.018 35.7171 48.018 34.0553C48.018 31.0486 45.6628 28.6934 42.6562 28.6934C41.3049 28.6934 39.9697 29.2022 38.9417 30.0842C37.9134 29.2021 36.5782 28.6934 35.2268 28.6934C32.2201 28.6933 29.8649 31.0486 29.8649 34.0552C29.8649 37.6896 32.3953 39.9111 36.2256 43.2737ZM35.6401 35.3817H37.8409V33.1807H40.0418V35.3817H42.2427V37.5825H40.0418V39.7833H37.8409V37.5825H35.6401V35.3817Z" fill="#FF1616"/>
<path d="M135.856 27.5225C140.714 27.5225 144.64 31.4477 144.64 36.3062C144.64 41.1648 140.714 45.09 135.856 45.09C130.997 45.09 127.072 41.1648 127.072 36.3062C127.072 31.4477 130.997 27.5225 135.856 27.5225Z" fill="#5BB6E8"/>
<path d="M139.507 35.5653C140.66 35.5653 141.62 36.4986 141.62 37.6514C141.62 38.8043 140.66 39.7376 139.507 39.7376H132.205C131.052 39.7376 130.092 38.8043 130.092 37.6514C130.092 36.6358 130.833 35.7849 131.821 35.5927C131.821 35.5378 131.821 35.5104 131.821 35.4555C131.821 34.5771 132.562 33.836 133.44 33.836C133.633 33.836 133.825 33.8634 133.989 33.9183C134.429 32.9576 135.389 32.2988 136.515 32.2988C138.052 32.2988 139.287 33.534 139.287 35.0438C139.287 35.2085 139.26 35.3732 139.232 35.5104H139.507V35.5653Z" fill="white"/>
</svg>
